<svg xmlns="http://www.w3.org/2000/svg" version="1.0" width="70.176pt" height="80pt" viewBox="0 0 192.000000 219.000000" preserveAspectRatio="xMidYMid meet" style="background: white">

<g transform="translate(0.000000,219.000000) scale(0.100000,-0.100000)" fill="#000000" stroke="none">
<path d="M760 2179 c-340 -35 -626 -143 -727 -275 -25 -33 -28 -45 -25 -98 1 -34 5 -353 8 -711 5 -647 5 -649 26 -672 15 -16 33 -23 59 -23 l38 0 0 -67 c0 -92 62 -276 104 -307 28 -21 36 -21 690 -24 364 -2 681 0 705 3 70 10 88 35 122 165 16 63 30 141 30 173 l0 57 34 0 c19 0 44 9 57 19 l24 19 5 709 c5 591 3 713 -8 740 -33 77 -170 172 -317 222 -206 68 -551 98 -825 70z m558 -34 c237 -34 431 -112 520 -209 32 -35 52 -68 56 -90 16 -85 -43 -262 -162 -491 l-68 -130 -700 -3 -699 -2 -52 92 c-137 247 -203 430 -187 521 20 120 290 256 609 307 201 32 480 34 683 5z m545 -1712 c-24 -18 -144 -17 -169 1 -18 14 -19 31 -22 382 l-3 368 84 165 c47 91 93 189 103 216 l19 50 3 -585 c2 -541 1 -586 -15 -597z m-1660 851 l47 -81 0 -373 c0 -437 7 -410 -102 -410 -118 0 -108 -55 -107 613 l0 572 58 -120 c31 -66 78 -156 104 -201z m1447 -458 c0 -363 1 -374 21 -400 16 -20 29 -26 61 -26 l41 0 -5 -70 c-4 -53 -12 -80 -31 -109 -49 -74 -25 -72 -794 -69 -671 3 -682 3 -709 24 -54 40 -68 70 -72 150 l-4 74 36 0 c23 0 43 7 56 20 19 19 20 33 20 393 0 206 3 377 7 380 3 4 314 7 690 7 l683 0 0 -374z m72 -707 c-25 -101 34 -94 -729 -97 -455 -2 -677 1 -704 8 -35 10 -44 18 -65 63 -33 71 -31 81 10 56 33 -19 50 -19 737 -17 l704 3 30 22 c17 12 31 23 31 23 1 0 -5 -27 -14 -61z"/>
<path d="M150 1845 c0 -24 252 -54 538 -64 268 -10 601 2 805 29 87 11 160 20 162 20 3 0 5 7 5 16 0 11 -5 14 -16 10 -26 -10 -231 -34 -394 -47 -289 -22 -837 -1 -1052 39 -36 7 -48 6 -48 -3z"/>
</g>
</svg>