<svg version="1.0" xmlns="http://www.w3.org/2000/svg"
 width="80pt" height="43.0769231pt" viewBox="0 0 351.000000 189.000000"
 preserveAspectRatio="xMidYMid meet" style="background: white">
<metadata>
Created by potrace 1.16, written by Peter Selinger 2001-2019
</metadata>
<g transform="translate(0.000000,189.000000) scale(0.100000,-0.100000)"
fill="#000000" stroke="none">
<path d="M1 1058 l0 -833 27 -110 27 -110 117 -3 116 -3 -24 83 c-13 45 -24
83 -24 85 0 2 682 3 1515 3 833 0 1515 -1 1515 -2 0 -2 -9 -37 -20 -78 -11
-41 -20 -79 -20 -83 0 -4 51 -6 112 -5 l113 3 27 110 27 110 0 833 1 832
-1755 0 -1755 0 1 -832z m3487 15 l2 -793 -1735 0 -1735 0 0 788 c0 434 3 792
7 795 3 4 783 6 1732 5 l1726 -3 3 -792z m-8 -830 c0 -4 -12 -55 -26 -115
l-26 -108 -79 0 c-90 0 -89 -2 -64 90 8 30 15 61 15 68 0 9 -316 12 -1549 12
l-1549 0 24 -82 c13 -45 24 -83 24 -85 0 -2 -38 -3 -84 -3 l-84 0 -26 108
c-14 60 -26 111 -26 115 0 4 776 7 1725 7 949 0 1725 -3 1725 -7z"/>
</g>
</svg>
