<svg xmlns="http://www.w3.org/2000/svg" version="1.0" width="80.000000pt" height="80.000000pt" viewBox="0 0 459.000000 459.000000" preserveAspectRatio="xMidYMid meet">

<g transform="translate(0.000000,459.000000) scale(0.100000,-0.100000)" fill="#000000" stroke="none">
<path d="M51 4576 c-53 -30 -50 106 -51 -2278 0 -1698 3 -2223 12 -2243 27 -59 -128 -55 2283 -55 2411 0 2256 -4 2283 55 9 20 12 545 12 2241 0 2410 4 2255 -55 2282 -40 19 -4450 17 -4484 -2z m4491 -34 l23 -23 0 -2224 0 -2224 -23 -23 -23 -23 -2224 0 -2224 0 -23 23 -23 23 -2 2212 c-2 1762 0 2217 10 2237 7 13 24 30 37 37 20 10 475 12 2237 10 l2212 -2 23 -23z"/>
<path d="M2315 4177 c-117 -39 -207 -117 -256 -222 -78 -166 -47 -348 80 -476 204 -204 541 -149 668 109 37 74 38 79 38 187 0 103 -2 114 -32 177 -41 88 -113 160 -201 201 -58 27 -79 32 -162 34 -59 2 -110 -2 -135 -10z m289 -46 c77 -38 157 -120 194 -198 23 -51 27 -71 27 -158 0 -91 -3 -106 -31 -165 -17 -37 -52 -87 -80 -114 -27 -28 -77 -63 -114 -80 -59 -28 -74 -31 -165 -31 -92 0 -106 3 -167 32 -85 40 -151 106 -191 191 -29 61 -32 75 -32 167 0 93 2 105 32 165 52 106 147 187 252 217 28 8 79 11 129 9 68 -3 95 -10 146 -35z"/>
<path d="M2360 4031 c-156 -51 -234 -222 -166 -366 28 -60 99 -127 154 -143 186 -56 365 83 350 271 -8 98 -59 176 -143 219 -43 23 -152 33 -195 19z m151 -26 c60 -21 104 -58 136 -113 24 -39 28 -58 28 -117 -1 -107 -48 -180 -145 -224 -164 -74 -356 65 -337 244 16 159 171 261 318 210z"/>
<path d="M1746 4144 c-4 -9 -6 -137 -5 -283 1 -292 7 -334 49 -339 14 -2 35 -16 47 -30 l22 -27 1 92 c0 50 5 95 10 98 6 3 10 35 10 71 0 52 5 72 26 106 l27 42 -32 63 c-26 53 -31 75 -31 133 0 38 -4 71 -8 74 -5 3 -31 8 -59 11 -42 6 -51 5 -57 -11z m102 -245 l2 -226 -31 -7 c-63 -12 -59 -26 -59 222 0 126 3 232 7 236 4 4 23 6 43 4 l35 -3 3 -226z m50 -4 c7 -15 7 -25 -4 -40 -13 -17 -14 -15 -14 25 0 46 1 47 18 15z m-80 -283 c2 -13 -4 -35 -13 -49 -21 -32 -35 -16 -35 40 0 34 3 38 23 35 14 -2 23 -11 25 -26z m19 -64 c-3 -8 -6 -5 -6 6 -1 11 2 17 5 13 3 -3 4 -12 1 -19z"/>
<path d="M683 2831 c-190 -70 -308 -267 -276 -458 48 -278 336 -435 588 -319 225 103 313 380 189 592 -36 61 -125 141 -191 172 -78 35 -230 42 -310 13z m248 -17 c193 -56 321 -263 280 -453 -27 -125 -114 -236 -228 -289 -52 -24 -70 -27 -163 -27 -96 0 -110 3 -165 29 -159 78 -251 249 -224 418 37 237 272 389 500 322z"/>
<path d="M699 2668 c-144 -76 -188 -249 -96 -385 48 -71 110 -105 202 -111 66 -4 81 -2 129 22 214 105 199 415 -23 491 -74 25 -140 20 -212 -17z m193 -2 c147 -44 216 -210 143 -345 -78 -143 -250 -174 -372 -67 -58 51 -82 104 -83 179 0 68 16 110 60 161 67 76 156 101 252 72z"/>
<path d="M3567 2839 c-39 -11 -58 -29 -52 -48 3 -10 -7 -24 -28 -38 l-32 -23 97 0 c54 0 100 -4 103 -10 3 -5 34 -10 68 -10 50 0 70 -5 99 -25 20 -14 41 -25 46 -25 5 0 33 13 63 30 46 25 65 30 126 30 84 0 96 11 91 83 l-3 42 -275 1 c-151 1 -288 -2 -303 -7z m552 -18 c10 -6 12 -19 7 -43 l-6 -35 -181 -5 c-99 -3 -200 -3 -224 0 -41 4 -46 7 -55 41 -5 20 -10 39 -10 44 0 10 452 9 469 -2z m-486 -21 c6 -25 -27 -36 -66 -21 -47 18 -31 39 29 40 24 1 33 -4 37 -19z m-70 -47 c-7 -2 -19 -2 -25 0 -7 3 -2 5 12 5 14 0 19 -2 13 -5z m337 -53 c-20 -13 -47 -13 -55 0 -4 6 9 10 32 10 28 0 34 -3 23 -10z"/>
<path d="M3707 2569 c-254 -36 -414 -293 -337 -542 34 -110 117 -202 230 -256 49 -23 67 -26 170 -26 111 0 118 1 182 34 123 61 207 176 231 316 36 210 -129 442 -334 470 -24 4 -53 8 -64 9 -11 2 -46 -1 -78 -5z m181 -37 c253 -79 357 -384 205 -602 -176 -252 -552 -217 -684 63 -67 145 -42 305 68 428 105 116 259 158 411 111z"/>
<path d="M3677 2406 c-165 -59 -229 -270 -123 -409 120 -158 366 -137 452 39 71 144 2 317 -146 369 -52 18 -132 19 -183 1z m165 -18 c51 -15 126 -82 149 -133 23 -50 25 -142 3 -193 -21 -52 -70 -100 -129 -128 -206 -98 -419 133 -310 335 58 106 172 154 287 119z"/>
<path d="M660 1900 c-46 -24 -67 -29 -127 -30 -61 0 -74 -3 -83 -19 -13 -25 -13 -98 -1 -106 11 -6 453 -7 537 -1 68 5 97 21 90 50 -4 17 2 26 27 42 l32 19 -95 3 c-52 2 -99 7 -104 12 -6 6 -37 10 -71 10 -46 1 -69 6 -100 25 -22 14 -42 25 -45 24 -3 0 -30 -13 -60 -29z m85 -10 c4 -6 -9 -10 -32 -10 -28 0 -34 3 -23 10 20 13 47 13 55 0z m181 -67 c3 -16 8 -36 11 -45 4 -17 -12 -18 -231 -18 -155 0 -237 4 -241 11 -4 6 -4 26 -1 45 l7 34 224 0 225 0 6 -27z m127 10 c-7 -2 -19 -2 -25 0 -7 3 -2 5 12 5 14 0 19 -2 13 -5z m-8 -34 c14 -14 -12 -29 -51 -29 -23 0 -33 5 -37 20 -3 10 0 21 7 24 16 7 68 -2 81 -15z"/>
<path d="M2093 1230 c-130 -19 -258 -114 -316 -238 -30 -63 -32 -74 -32 -177 0 -103 2 -114 32 -177 41 -88 113 -160 201 -201 63 -30 74 -32 177 -32 102 0 114 2 175 31 94 45 153 102 195 187 58 118 65 205 24 332 -58 183 -257 303 -456 275z m229 -57 c85 -40 151 -105 191 -191 29 -61 32 -75 32 -167 0 -91 -3 -106 -31 -165 -39 -83 -111 -155 -194 -194 -59 -28 -74 -31 -165 -31 -88 0 -107 3 -158 27 -80 38 -160 117 -200 197 -30 61 -32 73 -32 166 0 93 2 105 33 167 75 153 204 231 372 225 71 -2 97 -8 152 -34z"/>
<path d="M2050 1059 c-211 -95 -214 -386 -5 -485 173 -82 374 48 375 241 0 189 -200 321 -370 244z m217 -27 c174 -89 174 -344 0 -433 -116 -60 -256 -17 -324 98 -24 40 -28 59 -28 118 1 117 61 199 175 236 40 13 133 3 177 -19z"/>
<path d="M2730 1031 c0 -50 -4 -93 -10 -96 -5 -3 -10 -36 -10 -73 0 -56 -4 -74 -26 -106 l-27 -39 32 -64 c26 -53 31 -75 31 -133 0 -38 4 -71 9 -74 5 -4 30 -9 56 -13 35 -4 49 -2 56 8 14 21 9 546 -4 589 -10 28 -17 35 -37 35 -16 0 -31 9 -42 28 -10 15 -20 27 -23 27 -3 0 -5 -40 -5 -89z m27 -3 c-3 -8 -6 -5 -6 6 -1 11 2 17 5 13 3 -3 4 -12 1 -19z m63 -41 c0 -34 -3 -38 -22 -35 -19 2 -23 9 -21 36 1 40 22 70 34 50 5 -7 9 -30 9 -51z m10 -281 c0 -123 -2 -230 -5 -238 -4 -9 -18 -12 -45 -10 l-40 4 0 228 0 229 23 4 c12 2 32 5 45 6 l22 1 0 -224z m-120 2 c-1 -42 -1 -42 -14 -19 -11 19 -11 29 -2 43 15 25 16 24 16 -24z"/>
</g>
</svg>