<?xml version="1.0" standalone="no"?>
<!DOCTYPE svg PUBLIC "-//W3C//DTD SVG 20010904//EN"
 "http://www.w3.org/TR/2001/REC-SVG-20010904/DTD/svg10.dtd">
<svg version="1.0" xmlns="http://www.w3.org/2000/svg"
 width="80pt" height="80pt" viewBox="0 0 297.000000 316.000000"
 preserveAspectRatio="xMidYMid meet">

<g transform="translate(0.000000,316.000000) scale(0.100000,-0.100000)"
fill="#000000" stroke="none">
<path d="M2493 549 c-45 -23 -47 -95 -4 -119 12 -6 21 -15 21 -20 0 -6 -456
-10 -1255 -10 l-1255 0 0 -125 0 -125 1257 0 1258 0 -28 -25 c-38 -36 -40 -78
-5 -107 31 -27 170 -26 198 2 31 31 26 74 -12 104 l-33 26 168 0 167 0 0 125
0 125 -160 0 c-88 0 -160 3 -160 6 0 4 11 17 25 30 31 29 33 74 4 100 -25 22
-150 31 -186 13z m168 -19 c22 -12 26 -59 7 -78 -19 -19 -157 -16 -180 5 -22
20 -23 32 -2 61 13 19 24 22 85 22 39 0 79 -5 90 -10z m-31 -120 c0 -5 -20
-10 -44 -10 -25 0 -48 5 -51 10 -4 6 13 10 44 10 28 0 51 -4 51 -10z m320
-135 l0 -105 -1465 0 -1465 0 0 105 0 105 1465 0 1465 0 0 -105z m-347 -132
c-13 -2 -35 -2 -50 0 -16 2 -5 4 22 4 28 0 40 -2 28 -4z m58 -33 c22 -12 26
-59 7 -78 -19 -19 -163 -16 -182 4 -21 21 -20 40 4 64 16 16 33 20 86 20 36 0
74 -5 85 -10z"/>
</g>
</svg>
