<?xml version="1.0" standalone="no"?>
<!DOCTYPE svg PUBLIC "-//W3C//DTD SVG 20010904//EN"
 "http://www.w3.org/TR/2001/REC-SVG-20010904/DTD/svg10.dtd">
<svg version="1.0" xmlns="http://www.w3.org/2000/svg"
 width="80pt" height="80pt" viewBox="0 0 297.000000 316.000000"
 preserveAspectRatio="xMidYMid meet">

<g transform="translate(0.000000,316.000000) scale(0.100000,-0.100000)"
fill="#000000" stroke="none">
<path d="M320 553 c-54 -20 -67 -79 -25 -117 14 -13 25 -26 25 -30 0 -3 -72
-6 -160 -6 l-160 0 0 -125 0 -125 168 0 167 0 -32 -26 c-39 -30 -44 -73 -13
-104 28 -28 167 -29 198 -3 35 30 33 72 -5 108 l-28 25 1258 0 1257 0 0 125 0
125 -1255 0 c-799 0 -1255 4 -1255 10 0 5 9 14 21 20 45 24 41 97 -7 119 -25
11 -127 14 -154 4z m169 -45 c14 -24 14 -28 -3 -47 -16 -18 -31 -21 -96 -21
-83 0 -100 8 -100 52 0 38 24 48 110 45 69 -2 75 -4 89 -29z m-54 -98 c-3 -5
-26 -10 -51 -10 -24 0 -44 5 -44 10 0 6 23 10 51 10 31 0 48 -4 44 -10z m2515
-135 l0 -105 -1465 0 -1465 0 0 105 0 105 1465 0 1465 0 0 -105z m-2527 -132
c-13 -2 -35 -2 -50 0 -16 2 -5 4 22 4 28 0 40 -2 28 -4z m57 -43 c49 -49 14
-80 -89 -80 -84 0 -101 8 -101 52 0 37 22 47 103 48 54 0 71 -4 87 -20z"/>
</g>
</svg>
