<?xml version="1.0" encoding="iso-8859-1"?>
<!-- Generator: Adobe Illustrator 19.0.0, SVG Export Plug-In . SVG Version: 6.00 Build 0)  -->
<svg version="1.1" id="Layer_1" xmlns="http://www.w3.org/2000/svg" xmlns:xlink="http://www.w3.org/1999/xlink" x="0px" y="0px"
	 viewBox="0 0 512 512" style="enable-background:new 0 0 512 512;" xml:space="preserve">
<g>
	<g>
		<g>
			<path d="M469.333,85.333H249.75l-39.542-39.542c-2-2-4.708-3.125-7.542-3.125h-160C19.135,42.667,0,61.802,0,85.333v341.333
				c0,23.531,19.135,42.667,42.667,42.667h426.667c23.531,0,42.667-19.135,42.667-42.667V128
				C512,104.469,492.865,85.333,469.333,85.333z M490.667,426.667c0,11.76-9.573,21.333-21.333,21.333H42.667
				c-11.76,0-21.333-9.573-21.333-21.333V85.333C21.333,73.573,30.906,64,42.667,64H198.25l39.542,39.542
				c2,2,4.708,3.125,7.542,3.125h224c11.76,0,21.333,9.573,21.333,21.333V426.667z"/>
			<path d="M424.781,256H384v-77.177c0-16.26-13.229-29.49-29.49-29.49h-26.354c-16.26,0-29.49,13.229-29.49,29.49V256h-40.781
				c-12.802,0-23.219,10.417-23.219,23.219c0,6.604,3.115,11.583,5.458,14.75c22.979,31.083,63.708,79.583,85.927,105.719
				c2.427,2.854,7.052,6.271,15.281,6.271c8.229,0,12.854-3.417,15.271-6.271c22.229-26.135,62.958-74.635,85.938-105.719
				c2.344-3.167,5.458-8.146,5.458-14.75C448,266.417,437.583,256,424.781,256z M425.396,281.281
				c-22.25,30.083-61.708,77.125-83.979,103.344c-0.031,0-0.052,0-0.083,0l-0.083-0.01c-22.271-26.208-61.729-73.24-83.979-103.333
				c-1.104-1.5-1.26-2.042-1.271-2.063c0-1.042,0.844-1.885,1.885-1.885h51.448c5.896,0,10.667-4.771,10.667-10.667v-87.844
				c0-4.5,3.656-8.156,8.156-8.156h26.354c4.5,0,8.156,3.656,8.156,8.156v87.844c0,5.896,4.771,10.667,10.667,10.667h51.448
				c1.042,0,1.885,0.844,1.896,1.813C426.656,279.24,426.5,279.781,425.396,281.281z"/>
		</g>
	</g>
</g>
<g>
</g>
<g>
</g>
<g>
</g>
<g>
</g>
<g>
</g>
<g>
</g>
<g>
</g>
<g>
</g>
<g>
</g>
<g>
</g>
<g>
</g>
<g>
</g>
<g>
</g>
<g>
</g>
<g>
</g>
</svg>
