<svg version="1.0" xmlns="http://www.w3.org/2000/svg"
 width="38.3507pt" height="40pt" viewBox="0 0 181.000000 189.000000"
 preserveAspectRatio="xMidYMid meet">

<g transform="translate(0.000000,189.000000) scale(0.100000,-0.100000)"
fill="#000000" stroke="none">
<path d="M0 1076 l0 -814 31 -131 31 -131 109 0 c118 0 120 1 99 54 l-10 26
645 0 644 0 -10 -32 c-5 -18 -9 -36 -9 -40 0 -5 49 -8 109 -8 l109 0 31 131
31 131 0 814 0 814 -905 0 -905 0 0 -814z m1788 -3 l2 -793 -885 0 -885 0 0
788 c0 434 3 792 7 795 3 4 401 6 882 5 l876 -3 3 -792z m-8 -830 c0 -4 -12
-55 -26 -115 l-26 -108 -84 0 c-46 0 -84 3 -84 8 0 4 4 22 9 40 l10 32 -674 0
-675 0 10 -26 c20 -51 17 -54 -74 -54 l-84 0 -26 108 c-14 60 -26 111 -26 115
0 4 394 7 875 7 481 0 875 -3 875 -7z"/>
<path d="M193 216 c3 -8 11 -32 18 -55 l12 -41 683 0 683 0 11 41 c6 22 14 47
17 55 4 12 -93 14 -712 14 -610 0 -716 -2 -712 -14z m1397 -10 c0 -1 -5 -17
-11 -35 l-11 -31 -663 0 -663 0 -11 31 c-6 18 -11 34 -11 35 0 2 308 4 685 4
377 0 685 -2 685 -4z"/>
<path d="M874 185 c-9 -22 9 -37 37 -33 16 2 24 10 24 23 0 26 -52 35 -61 10z"/>
</g>
</svg>