<svg version="1.0" xmlns="http://www.w3.org/2000/svg"
 width="80pt" height="27.0967742pt" viewBox="0 0 434.000000 147.000000"
 preserveAspectRatio="xMidYMid meet" style="background: white">
<metadata>
Created by potrace 1.16, written by Peter Selinger 2001-2019
</metadata>
<g transform="translate(0.000000,147.000000) scale(0.100000,-0.100000)"
fill="#000000" stroke="none">
<path d="M0 735 l0 -735 2170 0 2170 0 0 735 0 735 -2170 0 -2170 0 0 -735z
m4320 145 l0 -570 -484 0 -483 0 -6 48 c-3 26 -21 183 -39 350 l-32 302 -1106
0 -1106 0 -32 -302 c-18 -167 -36 -324 -39 -351 l-6 -47 -483 0 -484 0 0 570
0 570 2150 0 2150 0 0 -570z m-1031 -202 c18 -172 36 -330 39 -350 l5 -38 493
0 494 0 0 -135 0 -135 -2150 0 -2150 0 0 135 0 135 494 0 493 0 5 37 c3 21 21
179 39 351 l34 312 1085 0 1085 0 34 -312z"/>
</g>
</svg>