<svg version="1.0" xmlns="http://www.w3.org/2000/svg"
 width="80pt" height="47.7246654pt" viewBox="0 0 523.000000 312.000000"
 preserveAspectRatio="xMidYMid meet" style="background: white">
<metadata>
Created by potrace 1.16, written by Peter Selinger 2001-2019
</metadata>
<g transform="translate(0.000000,312.000000) scale(0.100000,-0.100000)"
fill="#000000" stroke="none">
<path d="M250 3111 c-90 -28 -171 -96 -217 -183 l-28 -53 -3 -1323 c-2 -1190
-1 -1325 13 -1350 9 -15 33 -56 53 -92 41 -71 61 -85 149 -101 73 -14 414 -6
466 10 55 18 77 43 77 91 l0 40 1855 0 1855 0 0 -34 c0 -87 85 -116 341 -116
254 0 303 14 350 103 17 34 40 74 51 89 18 26 18 74 16 1355 l-3 1328 -28 53
c-35 67 -92 124 -159 159 l-53 28 -2355 2 c-1295 1 -2366 -2 -2380 -6z m4745
-35 c72 -28 166 -124 191 -196 17 -49 19 -85 19 -310 0 -222 -2 -262 -18 -308
-25 -70 -102 -153 -175 -189 l-57 -28 -2340 0 -2340 0 -57 28 c-73 36 -150
119 -175 189 -16 46 -18 86 -18 308 0 221 2 262 18 307 20 57 87 139 141 172
84 52 -38 50 2451 48 2252 -2 2311 -2 2360 -21z m205 -2837 c-20 -71 -32 -74
-325 -77 -282 -4 -320 1 -354 45 -21 25 -21 33 -21 919 l0 894 213 0 c239 0
282 7 364 63 27 19 66 59 88 93 l40 59 3 -980 c2 -663 -1 -992 -8 -1016z
m-5124 1919 c17 -24 53 -58 79 -76 83 -55 124 -62 367 -62 l218 0 0 -881 c0
-774 -2 -885 -15 -914 -28 -58 -39 -60 -351 -60 l-284 0 -32 33 -33 32 -2
1003 c-2 796 0 999 10 986 6 -9 26 -37 43 -61z m2524 -946 c0 -730 -2 -810
-16 -831 -37 -52 -17 -51 -954 -51 l-870 0 0 845 0 845 920 0 920 0 0 -808z
m1870 -37 l0 -845 -870 0 c-937 0 -917 -1 -954 51 -14 21 -16 101 -16 831 l0
808 920 0 920 0 0 -845z m-1783 -856 c14 -5 380 -9 904 -9 l879 0 0 -65 0 -65
-1855 0 -1855 0 0 65 0 65 881 0 c794 0 884 2 915 16 19 9 40 26 45 37 11 19
12 19 36 -7 14 -15 36 -31 50 -37z m-1951 -193 c-7 -52 -9 -55 -48 -71 -66
-26 -250 -39 -380 -27 -147 14 -172 23 -201 75 l-23 42 297 0 c288 0 298 1
326 21 15 12 30 20 32 18 2 -2 0 -28 -3 -58z m4127 16 l285 3 -20 -38 c-25
-50 -62 -65 -199 -79 -132 -13 -332 2 -389 30 -33 16 -35 21 -38 70 l-3 52 39
-20 c38 -20 54 -21 325 -18z"/>
</g>
</svg>
