<svg version="1.0" xmlns="http://www.w3.org/2000/svg"
 width="80pt" height="47.0951157pt" viewBox="0 0 389.000000 229.000000"
 preserveAspectRatio="xMidYMid meet" style="background: white">

<g transform="translate(0.000000,229.000000) scale(0.100000,-0.100000)"
fill="#000000" stroke="none">
<path d="M0 1276 l0 -1013 40 -127 41 -126 94 0 95 0 0 90 0 90 1675 0 1675 0
0 -90 0 -90 95 0 94 0 41 126 40 127 0 1013 0 1014 -1945 0 -1945 0 0 -1014z
m3865 -6 l0 -995 -1920 0 -1920 0 -3 985 c-1 542 0 991 3 998 3 10 393 12
1922 10 l1918 -3 0 -995z m-7 -1032 c-3 -7 -20 -57 -37 -110 l-33 -98 -64 0
c-45 0 -64 4 -64 13 0 6 11 46 24 87 l24 75 -1761 3 c-968 1 -1762 0 -1765 -2
-2 -3 8 -40 22 -83 14 -43 26 -81 26 -86 0 -4 -29 -7 -64 -7 l-64 0 -33 98
c-17 53 -34 103 -37 110 -3 9 384 12 1913 12 1529 0 1916 -3 1913 -12z m-3619
-90 l-1 -43 -13 35 c-18 46 -18 50 0 50 11 0 15 -11 14 -42z m3430 25 c-1 -10
-5 -29 -9 -43 -7 -21 -8 -19 -9 18 -1 23 4 42 9 42 6 0 10 -8 9 -17z"/>
<path d="M623 1802 c-174 -30 -203 -38 -203 -53 0 -16 84 -516 95 -565 5 -22
7 -22 285 -23 l280 -2 -2 308 -3 308 -92 3 -93 3 0 29 c0 27 -3 30 -32 29 -18
-1 -124 -17 -235 -37z m287 -244 c25 -145 45 -272 45 -282 0 -18 -21 -24 -208
-56 -206 -36 -208 -36 -212 -16 -9 40 -94 541 -92 542 2 1 398 71 412 73 6 1
30 -115 55 -261z m140 -93 l0 -285 -182 1 c-101 1 -176 3 -168 5 8 3 75 15
148 28 73 13 134 25 136 27 2 2 -16 117 -40 254 -24 138 -44 251 -44 253 0 1
34 2 75 2 l75 0 0 -285z"/>
<path d="M1258 1675 c-8 -20 -14 -93 -16 -227 l-3 -198 30 0 31 0 0 203 c-1
153 -4 208 -15 227 l-13 25 -14 -30z m19 -312 c-1 -54 -3 -12 -3 92 0 105 2
149 3 98 2 -51 2 -136 0 -190z"/>
<path d="M1530 1476 l-23 -25 24 -88 c21 -80 24 -114 29 -381 5 -276 6 -295
24 -308 16 -12 97 -14 470 -14 248 0 456 4 462 8 30 20 34 55 34 312 0 248 1
267 26 362 25 101 25 102 6 127 l-19 26 -505 3 -504 2 -24 -24z m778 -3 c-136
-2 -361 -2 -500 0 -139 1 -28 2 247 2 275 0 389 -1 253 -2z m261 -45 c0 -13
-10 -59 -22 -103 l-22 -80 -464 -3 c-256 -1 -469 2 -474 7 -10 10 -47 148 -47
179 l0 22 515 0 515 0 -1 -22z m-49 -466 c0 -187 -3 -261 -12 -270 -8 -8 -59
-12 -165 -12 l-153 0 0 69 c0 46 -4 72 -14 80 -9 8 -52 11 -127 9 l-114 -3 -3
-77 -3 -78 -157 0 c-110 0 -162 4 -170 12 -9 9 -12 83 -12 270 l0 258 465 0
465 0 0 -258z m-352 -214 l3 -68 -111 0 -110 0 0 70 0 71 108 -3 107 -3 3 -67z"/>
<path d="M1563 1424 c-8 -20 15 -122 33 -151 l14 -23 444 0 c357 0 446 3 455
13 16 21 45 141 38 160 -6 16 -45 17 -492 17 -434 0 -486 -2 -492 -16z m967
-21 c0 -5 -8 -35 -18 -68 l-18 -60 -439 0 -438 0 -12 35 c-7 20 -16 50 -20 68
l-7 32 476 0 c262 0 476 -3 476 -7z"/>
<path d="M1610 1025 l0 -145 435 0 435 0 1 35 c1 19 1 69 1 110 0 41 0 91 -1
110 l-1 35 -435 0 -435 0 0 -145z m70 105 c0 -15 -7 -20 -25 -20 -24 0 -34 18
-18 33 15 15 43 7 43 -13z m70 0 c0 -13 -7 -20 -20 -20 -13 0 -20 7 -20 20 0
13 7 20 20 20 13 0 20 -7 20 -20z m70 0 c0 -13 -7 -20 -20 -20 -13 0 -20 7
-20 20 0 13 7 20 20 20 13 0 20 -7 20 -20z m78 -2 c3 -13 -3 -18 -22 -18 -20
0 -26 5 -26 21 0 15 5 20 22 17 13 -2 24 -11 26 -20z m70 0 c3 -13 -3 -18 -22
-18 -20 0 -26 5 -26 21 0 15 5 20 22 17 13 -2 24 -11 26 -20z m70 0 c3 -13 -3
-18 -22 -18 -20 0 -26 5 -26 21 0 15 5 20 22 17 13 -2 24 -11 26 -20z m72 2
c0 -15 -7 -20 -25 -20 -18 0 -25 5 -25 20 0 15 7 20 25 20 18 0 25 -5 25 -20z
m70 0 c0 -15 -7 -20 -25 -20 -18 0 -25 5 -25 20 0 15 7 20 25 20 18 0 25 -5
25 -20z m70 0 c0 -15 -7 -20 -25 -20 -18 0 -25 5 -25 20 0 15 7 20 25 20 18 0
25 -5 25 -20z m70 0 c0 -15 -7 -20 -25 -20 -18 0 -25 5 -25 20 0 15 7 20 25
20 18 0 25 -5 25 -20z m70 0 c0 -15 -7 -20 -25 -20 -18 0 -25 5 -25 20 0 15 7
20 25 20 18 0 25 -5 25 -20z m70 0 c0 -15 -7 -20 -25 -20 -24 0 -34 18 -18 33
15 15 43 7 43 -13z m-810 -70 c0 -11 -4 -20 -10 -20 -5 0 -10 9 -10 20 0 11 5
20 10 20 6 0 10 -9 10 -20z m70 0 c0 -15 -7 -20 -25 -20 -18 0 -25 5 -25 20 0
15 7 20 25 20 18 0 25 -5 25 -20z m70 0 c0 -15 -7 -20 -25 -20 -18 0 -25 5
-25 20 0 15 7 20 25 20 18 0 25 -5 25 -20z m70 0 c0 -15 -7 -20 -25 -20 -18 0
-25 5 -25 20 0 15 7 20 25 20 18 0 25 -5 25 -20z m70 0 c0 -15 -7 -20 -25 -20
-18 0 -25 5 -25 20 0 15 7 20 25 20 18 0 25 -5 25 -20z m70 0 c0 -15 -7 -20
-25 -20 -18 0 -25 5 -25 20 0 15 7 20 25 20 18 0 25 -5 25 -20z m70 0 c0 -15
-7 -20 -25 -20 -18 0 -25 5 -25 20 0 15 7 20 25 20 18 0 25 -5 25 -20z m70 0
c0 -13 -7 -20 -20 -20 -13 0 -20 7 -20 20 0 13 7 20 20 20 13 0 20 -7 20 -20z
m70 0 c0 -13 -7 -20 -20 -20 -13 0 -20 7 -20 20 0 13 7 20 20 20 13 0 20 -7
20 -20z m70 0 c0 -13 -7 -20 -20 -20 -13 0 -20 7 -20 20 0 13 7 20 20 20 13 0
20 -7 20 -20z m80 0 c0 -15 -7 -20 -25 -20 -18 0 -25 5 -25 20 0 15 7 20 25
20 18 0 25 -5 25 -20z m100 0 c0 -17 -7 -20 -40 -20 -33 0 -40 3 -40 20 0 17
7 20 40 20 33 0 40 -3 40 -20z m-780 -71 c0 -15 -5 -20 -22 -17 -34 5 -37 38
-4 38 20 0 26 -5 26 -21z m70 1 c0 -13 -7 -20 -20 -20 -13 0 -20 7 -20 20 0
13 7 20 20 20 13 0 20 -7 20 -20z m70 0 c0 -13 -7 -20 -20 -20 -13 0 -20 7
-20 20 0 13 7 20 20 20 13 0 20 -7 20 -20z m78 3 c-2 -10 -13 -19 -26 -21 -17
-3 -22 2 -22 17 0 16 6 21 26 21 19 0 25 -5 22 -17z m70 0 c-2 -10 -13 -19
-26 -21 -17 -3 -22 2 -22 17 0 16 6 21 26 21 19 0 25 -5 22 -17z m70 0 c-2
-10 -13 -19 -26 -21 -17 -3 -22 2 -22 17 0 16 6 21 26 21 19 0 25 -5 22 -17z
m72 -3 c0 -15 -7 -20 -25 -20 -18 0 -25 5 -25 20 0 15 7 20 25 20 18 0 25 -5
25 -20z m70 0 c0 -15 -7 -20 -25 -20 -18 0 -25 5 -25 20 0 15 7 20 25 20 18 0
25 -5 25 -20z m70 0 c0 -15 -7 -20 -25 -20 -18 0 -25 5 -25 20 0 15 7 20 25
20 18 0 25 -5 25 -20z m70 0 c0 -15 -7 -20 -25 -20 -18 0 -25 5 -25 20 0 15 7
20 25 20 18 0 25 -5 25 -20z m70 0 c0 -15 -7 -20 -25 -20 -18 0 -25 5 -25 20
0 15 7 20 25 20 18 0 25 -5 25 -20z m70 -1 c0 -15 -5 -20 -22 -17 -34 5 -37
38 -4 38 20 0 26 -5 26 -21z m-740 -59 c0 -17 -7 -20 -45 -20 -31 0 -45 4 -45
13 0 21 11 27 52 27 31 0 38 -3 38 -20z m70 0 c0 -15 -7 -20 -25 -20 -18 0
-25 5 -25 20 0 15 7 20 25 20 18 0 25 -5 25 -20z m70 0 c0 -15 -7 -20 -25 -20
-18 0 -25 5 -25 20 0 15 7 20 25 20 18 0 25 -5 25 -20z m70 0 c0 -15 -7 -20
-25 -20 -18 0 -25 5 -25 20 0 15 7 20 25 20 18 0 25 -5 25 -20z m70 0 c0 -15
-7 -20 -25 -20 -18 0 -25 5 -25 20 0 15 7 20 25 20 18 0 25 -5 25 -20z m70 0
c0 -15 -7 -20 -25 -20 -24 0 -34 18 -18 33 15 15 43 7 43 -13z m70 0 c0 -13
-7 -20 -20 -20 -13 0 -20 7 -20 20 0 13 7 20 20 20 13 0 20 -7 20 -20z m70 0
c0 -13 -7 -20 -20 -20 -13 0 -20 7 -20 20 0 13 7 20 20 20 13 0 20 -7 20 -20z
m70 0 c0 -13 -7 -20 -20 -20 -13 0 -20 7 -20 20 0 13 7 20 20 20 13 0 20 -7
20 -20z m78 -2 c3 -13 -3 -18 -22 -18 -20 0 -26 5 -26 21 0 15 5 20 22 17 13
-2 24 -11 26 -20z m102 2 c0 -17 -7 -20 -40 -20 -33 0 -40 3 -40 20 0 17 7 20
40 20 33 0 40 -3 40 -20z"/>
<path d="M2741 946 c-8 -9 -11 -57 -9 -147 l3 -134 185 0 185 0 3 134 c2 90
-1 138 -9 147 -9 11 -48 14 -179 14 -131 0 -170 -3 -179 -14z m347 -139 l3
-127 -168 2 -168 3 -3 114 c-1 63 0 121 2 128 4 11 40 13 168 11 l163 -3 3
-128z"/>
<path d="M2866 898 c-11 -15 -16 -45 -16 -93 0 -62 3 -74 23 -93 29 -27 71
-28 97 -2 28 28 29 168 2 193 -28 25 -87 22 -106 -5z m44 -18 c0 -11 -7 -20
-15 -20 -27 0 -18 30 13 39 1 1 2 -8 2 -19z m50 -7 c0 -20 -24 -11 -28 10 -2
12 1 15 12 11 9 -3 16 -13 16 -21z m10 -83 c0 -42 -4 -52 -25 -66 -23 -15 -27
-15 -50 0 -21 14 -25 24 -25 66 l0 50 50 0 50 0 0 -50z"/>
</g>
</svg>