<svg version="1.0" xmlns="http://www.w3.org/2000/svg"
 width="61.9875776pt" height="80pt" viewBox="0 0 499.000000 644.000000"
 preserveAspectRatio="xMidYMid meet" style="background: white">

<g transform="translate(0.000000,644.000000) scale(0.100000,-0.100000)"
fill="#000000" stroke="none">
<path d="M2 6363 c3 -52 20 -136 51 -252 l47 -173 0 -2742 0 -2743 -47 -149
c-34 -109 -48 -170 -51 -226 l-4 -78 2497 0 2497 0 -4 77 c-3 57 -17 118 -51
227 l-47 149 0 2743 0 2742 47 173 c31 116 48 200 51 252 l4 77 -2497 0 -2497
0 4 -77z m4958 2 l0 -55 -2465 0 -2465 0 0 55 0 55 2465 0 2465 0 0 -55z m-31
-187 c-17 -62 -35 -130 -40 -152 l-10 -38 -22 20 c-12 11 -35 25 -50 31 -40
15 -4584 15 -4624 0 -15 -6 -38 -20 -50 -31 l-22 -20 -10 38 c-5 22 -23 90
-40 152 l-30 112 2464 0 2464 0 -30 -112z m-107 -169 c49 -27 48 12 48 -1350
l0 -1272 -118 6 c-551 30 -1609 256 -2198 470 -388 141 -852 242 -1504 327
-228 29 -847 90 -921 90 -5 0 -9 317 -9 825 0 877 0 877 47 904 26 15 4626 15
4655 0z m-4482 -1769 c376 -29 990 -105 1214 -151 139 -28 258 -74 491 -189
422 -209 1025 -592 1662 -1055 l181 -133 51 63 c79 97 287 293 386 363 171
121 353 202 488 218 l57 7 0 -1482 c0 -1589 2 -1533 -48 -1560 -29 -15 -4625
-15 -4654 0 -50 27 -48 -42 -48 1731 0 909 3 1777 7 1929 l6 277 36 -4 c20 -2
97 -8 171 -14z m1753 -261 c109 -28 302 -86 430 -130 656 -227 1474 -408 2142
-474 l70 -7 -91 -33 c-222 -79 -461 -253 -669 -485 -49 -55 -95 -98 -101 -96
-7 3 -63 42 -125 89 -332 245 -852 595 -1174 789 -295 178 -441 255 -745 396
-46 22 53 3 263 -49z m-1940 -3673 l28 -21 2314 0 2314 0 28 21 c15 11 33 32
40 45 9 17 13 20 17 9 3 -8 18 -59 34 -112 l30 -98 -2463 0 -2463 0 30 98 c16
53 31 104 34 112 4 11 8 8 17 -9 7 -13 25 -34 40 -45z m4807 -231 l0 -55
-2465 0 -2465 0 0 55 0 55 2465 0 2465 0 0 -55z"/>
<path d="M686 5598 c-50 -14 -108 -72 -124 -124 -15 -53 -17 -731 -2 -786 14
-50 55 -97 105 -119 38 -17 83 -19 754 -19 708 0 715 0 759 21 26 13 54 38 70
62 l27 41 0 407 0 407 -31 39 c-17 21 -46 47 -65 58 -33 19 -53 20 -744 22
-465 1 -723 -2 -749 -9z m1495 -41 c19 -12 44 -42 57 -67 22 -43 22 -50 22
-412 0 -289 -3 -376 -14 -401 -17 -42 -66 -83 -114 -97 -25 -8 -257 -10 -738
-8 l-700 3 -41 27 c-73 48 -73 47 -73 481 0 383 0 384 23 418 12 18 38 44 56
56 l34 23 727 0 727 0 34 -23z"/>
<path d="M2936 5598 c-49 -13 -112 -75 -125 -125 -7 -24 -11 -176 -11 -403 0
-334 2 -368 19 -405 22 -48 54 -79 103 -100 33 -13 129 -15 748 -15 582 0 716
2 743 14 39 17 92 71 106 109 7 18 11 163 11 405 0 344 -2 381 -19 417 -22 50
-69 91 -119 105 -50 14 -1402 12 -1456 -2z m1503 -47 c69 -49 71 -63 71 -471
0 -334 -2 -368 -19 -406 -22 -47 -59 -80 -110 -95 -24 -7 -266 -9 -736 -7
-685 3 -701 3 -735 24 -19 11 -45 35 -57 54 -23 33 -23 35 -23 422 0 440 0
439 74 483 l41 25 730 -2 730 -3 34 -24z"/>
</g>
</svg>