<svg version="1.0" xmlns="http://www.w3.org/2000/svg"
 width="80pt" height="80pt" viewBox="0 0 366.000000 366.000000"
 preserveAspectRatio="xMidYMid meet">
<metadata>
Created by potrace 1.16, written by Peter Selinger 2001-2019
</metadata>
<g transform="translate(0.000000,366.000000) scale(0.100000,-0.100000)"
fill="#000000" stroke="none">
<path d="M1549 3645 c-684 -111 -1242 -582 -1458 -1231 -75 -225 -85 -295 -85
-584 0 -289 10 -359 85 -584 181 -546 609 -974 1155 -1155 225 -75 295 -85
584 -85 228 0 266 2 360 22 433 94 806 321 1077 657 169 209 302 495 365 785
20 94 22 132 22 360 0 228 -2 266 -22 360 -110 504 -388 909 -817 1190 -165
107 -403 204 -620 250 -130 29 -510 37 -646 15z m436 -15 c642 -61 1185 -433
1466 -1005 315 -643 223 -1405 -237 -1956 -367 -440 -956 -689 -1515 -640
-659 57 -1205 426 -1490 1006 -315 643 -223 1405 237 1956 373 448 964 693
1539 639z"/>
<path d="M1680 3259 c-329 -36 -631 -182 -864 -414 -211 -210 -348 -477 -403
-780 -22 -123 -21 -350 1 -480 107 -603 569 -1062 1181 -1172 119 -22 351 -22
470 0 204 37 408 118 566 224 94 64 232 186 284 252 30 39 45 49 60 45 11 -3
45 -8 76 -11 52 -5 58 -4 72 18 8 13 34 108 57 211 33 150 39 191 30 208 -9
17 -6 44 14 128 38 161 50 316 36 461 -20 209 -68 374 -160 549 -207 393 -588
670 -1026 747 -110 19 -291 26 -394 14z m437 -44 c194 -43 410 -140 553 -249
275 -207 463 -497 542 -836 25 -110 35 -374 19 -492 -14 -97 -50 -238 -61
-238 -4 0 -87 18 -185 40 -98 22 -183 40 -190 40 -7 0 -23 -8 -35 -18 -18 -15
-30 -55 -65 -212 -55 -246 -57 -239 82 -270 54 -12 112 -25 128 -29 l30 -8
-90 -92 c-121 -125 -236 -209 -380 -281 -232 -115 -364 -145 -635 -145 -270 0
-404 30 -635 145 -148 73 -262 158 -386 288 -187 194 -308 423 -366 695 -25
116 -25 438 0 554 58 272 179 501 365 695 222 230 468 363 787 422 106 20 418
15 522 -9z m878 -1801 c94 -20 176 -41 183 -47 19 -15 15 -50 -23 -223 -45
-201 -42 -193 -68 -199 -27 -7 -372 68 -392 85 -21 17 -19 33 25 230 39 176
53 206 89 196 9 -3 93 -21 186 -42z"/>
<path d="M910 2593 c-140 -26 -255 -55 -279 -70 -22 -14 -23 -19 -17 -82 3
-36 21 -131 39 -210 45 -201 32 -193 258 -147 229 47 215 44 233 62 23 23 20
64 -20 256 -46 225 -45 224 -214 191z m139 -12 c14 -9 36 -91 72 -279 20 -107
21 -124 8 -137 -14 -14 -328 -85 -379 -85 -35 0 -44 12 -58 78 -16 71 -15 78
6 60 35 -31 82 -48 135 -48 189 0 277 227 136 354 -21 20 -45 37 -52 37 -13 2
79 27 103 28 8 0 21 -3 29 -8z m-133 -47 c133 -63 133 -259 -1 -324 -179 -87
-345 129 -217 282 14 17 40 37 57 44 42 18 120 17 161 -2z"/>
<path d="M760 2511 c-94 -50 -112 -170 -37 -249 98 -102 267 -33 267 110 0
119 -126 195 -230 139z m147 -26 c60 -39 80 -123 43 -182 -25 -41 -68 -63
-123 -63 -72 0 -127 58 -127 135 0 102 121 166 207 110z"/>
<path d="M1280 1512 c-18 -15 -31 -55 -66 -210 -47 -206 -47 -234 -2 -251 44
-17 348 -81 382 -81 26 0 39 6 50 23 7 12 32 107 55 212 54 246 68 225 -180
282 -101 23 -191 42 -200 43 -9 0 -27 -8 -39 -18z m230 -47 c96 -21 181 -42
188 -48 19 -15 15 -47 -27 -236 -38 -167 -48 -191 -81 -191 -35 1 -362 79
-375 90 -21 18 -19 37 24 230 38 170 55 208 86 197 5 -3 89 -21 185 -42z"/>
<path d="M2861 1389 c-74 -29 -131 -114 -131 -194 1 -119 117 -218 235 -200
197 29 240 305 60 386 -43 20 -125 24 -164 8z m157 -30 c132 -64 132 -257 -1
-326 -40 -20 -124 -20 -164 0 -54 28 -103 105 -103 162 0 32 25 90 53 122 57
65 135 80 215 42z"/>
<path d="M2870 1338 c-58 -30 -90 -77 -90 -135 0 -88 53 -151 135 -160 84 -10
152 35 174 114 21 77 -32 172 -109 193 -50 14 -60 13 -110 -12z m131 -23 c93
-48 90 -194 -5 -239 -67 -31 -136 -9 -176 56 -69 114 61 245 181 183z"/>
</g>
</svg>