<svg version="1.0" xmlns="http://www.w3.org/2000/svg"
 width="80.000000pt" height="80.000000pt" viewBox="0 0 840.000000 839.000000"
 preserveAspectRatio="xMidYMid meet" >
<metadata>
Created by potrace 1.16, written by Peter Selinger 2001-2019
</metadata>
<g transform="translate(0.000000,839.000000) scale(0.100000,-0.100000)"
fill="#000000" stroke="none">
<path d="M4002 8109 c-821 -40 -1601 -337 -2252 -855 -160 -128 -461 -425
-586 -579 -407 -503 -684 -1086 -808 -1705 -86 -428 -99 -916 -35 -1353 184
-1268 998 -2382 2154 -2946 420 -205 806 -319 1285 -378 182 -22 663 -25 845
-5 1346 149 2494 940 3101 2137 427 844 534 1807 303 2730 -196 781 -650 1506
-1269 2030 -593 501 -1291 804 -2080 904 -78 10 -455 33 -490 29 -8 0 -84 -4
-168 -9z m648 -114 c1504 -182 2759 -1222 3209 -2660 111 -356 159 -651 168
-1047 6 -272 -3 -446 -37 -668 -244 -1616 -1488 -2898 -3102 -3194 -423 -78
-914 -80 -1345 -5 -1381 239 -2529 1227 -2974 2560 -181 544 -239 1143 -164
1711 105 792 456 1531 1007 2122 621 664 1505 1101 2398 1185 63 6 133 13 155
15 94 9 558 -3 685 -19z"/>
<path d="M3978 7930 c-551 -34 -1095 -190 -1573 -452 -158 -87 -406 -253 -548
-367 -639 -514 -1098 -1232 -1291 -2021 -71 -292 -96 -487 -103 -815 -7 -364
20 -630 98 -955 216 -903 774 -1707 1544 -2226 741 -500 1645 -722 2520 -619
1393 163 2579 1082 3073 2380 167 438 244 862 244 1340 0 430 -60 802 -195
1200 -308 912 -958 1668 -1822 2121 -581 304 -1287 454 -1947 414z m657 -114
c845 -113 1554 -457 2136 -1036 593 -591 943 -1305 1055 -2155 21 -162 29
-522 15 -700 -51 -645 -248 -1218 -603 -1750 -235 -354 -524 -659 -864 -911
-537 -400 -1194 -648 -1860 -705 -183 -15 -606 -7 -774 15 -1209 159 -2248
894 -2795 1976 -207 411 -327 822 -377 1290 -16 148 -16 562 0 710 49 461 159
843 362 1255 351 715 922 1290 1632 1646 413 207 822 325 1293 374 165 18 623
12 780 -9z"/>
<path d="M3870 7739 c-865 -87 -1631 -457 -2230 -1075 -553 -572 -881 -1272
-982 -2094 -16 -135 -17 -621 0 -755 55 -445 170 -840 353 -1206 192 -384 470
-756 772 -1030 587 -535 1257 -838 2052 -931 166 -19 607 -16 780 6 1097 137
2032 731 2617 1664 224 356 395 796 473 1217 60 330 76 728 41 1040 -94 828
-447 1558 -1036 2145 -576 574 -1325 929 -2144 1015 -158 16 -549 19 -696 4z
m770 -108 c763 -100 1432 -423 1979 -956 574 -559 923 -1259 1026 -2056 22
-169 30 -520 16 -694 -70 -839 -414 -1587 -1001 -2176 -550 -551 -1206 -877
-2005 -996 -172 -26 -725 -25 -903 0 -640 92 -1189 323 -1692 713 -150 116
-471 437 -584 584 -310 403 -505 796 -631 1275 -115 433 -140 940 -69 1400 77
502 272 995 562 1420 474 694 1197 1201 2002 1405 209 53 378 80 660 104 113
10 492 -4 640 -23z"/>
</g>
</svg>
