<svg xmlns="http://www.w3.org/2000/svg" version="1.0" width="80pt" height="54.519pt" viewBox="0 0 697.000000 475.000000" preserveAspectRatio="xMidYMid meet">

<g transform="translate(0.000000,475.000000) scale(0.100000,-0.100000)" fill="#000000" stroke="none">
<path d="M276 4735 c-4 -12 -30 -15 -141 -15 -83 0 -135 -4 -135 -10 0 -6 54 -10 141 -10 108 0 140 -3 137 -12 -3 -10 -43 -14 -141 -16 -184 -4 -181 -22 4 -22 l140 0 -3 -27 -3 -28 -137 -3 c-78 -1 -138 -7 -138 -12 0 -5 60 -11 137 -12 130 -3 138 -4 138 -23 0 -19 -8 -20 -138 -23 -77 -1 -137 -7 -137 -12 0 -5 60 -11 138 -12 l137 -3 0 -35 0 -35 -138 -3 c-184 -4 -182 -22 3 -22 133 0 140 -1 140 -20 0 -19 -7 -20 -140 -20 -118 0 -140 -2 -140 -15 0 -13 22 -15 141 -15 108 0 140 -3 137 -12 -3 -10 -43 -14 -141 -16 -184 -4 -181 -22 3 -22 133 0 140 -1 140 -20 0 -19 -7 -20 -140 -20 -185 0 -187 -18 -2 -22 134 -3 137 -4 140 -25 3 -23 3 -23 -137 -23 -119 0 -141 -2 -141 -15 0 -13 22 -15 141 -15 91 0 138 -4 134 -10 -4 -6 -62 -10 -141 -10 -180 0 -178 -19 3 -22 l138 -3 0 -25 0 -25 -138 -3 c-77 -1 -137 -7 -137 -12 0 -5 60 -11 137 -12 l138 -3 0 -25 0 -25 -137 -3 c-185 -4 -183 -22 3 -22 140 0 140 0 137 -22 -3 -22 -6 -23 -141 -26 -77 -1 -137 -7 -137 -12 0 -5 60 -11 137 -12 135 -3 138 -4 141 -25 3 -23 3 -23 -137 -23 -119 0 -141 -2 -141 -15 0 -13 22 -15 141 -15 108 0 140 -3 137 -12 -3 -10 -43 -14 -141 -16 -184 -4 -181 -22 4 -22 l140 0 -3 -32 -3 -33 -137 -3 c-78 -1 -138 -7 -138 -12 0 -5 60 -11 137 -12 l138 -3 3 -27 3 -28 -140 0 c-119 0 -141 -2 -141 -15 0 -13 22 -15 141 -15 128 0 140 -2 137 -17 -3 -16 -19 -18 -141 -21 -77 -1 -137 -7 -137 -12 0 -5 60 -11 138 -12 134 -3 137 -4 140 -25 3 -23 3 -23 -137 -23 -186 0 -188 -18 -3 -22 l137 -3 3 -37 3 -38 -140 0 c-186 0 -188 -18 -3 -22 134 -3 137 -4 140 -25 3 -23 3 -23 -137 -23 -186 0 -188 -18 -4 -22 l138 -3 0 -25 0 -25 -138 -3 c-184 -4 -182 -22 4 -22 140 0 140 0 137 -22 -3 -22 -6 -23 -140 -26 -78 -1 -138 -7 -138 -12 0 -5 60 -11 137 -12 115 -3 138 -6 138 -18 0 -12 -23 -15 -138 -18 -77 -1 -137 -7 -137 -12 0 -5 59 -11 135 -12 180 -4 180 -22 0 -26 -76 -1 -135 -7 -135 -12 0 -5 60 -11 137 -12 l138 -3 3 -27 3 -28 -140 0 c-186 0 -188 -18 -4 -22 135 -3 138 -4 141 -25 3 -23 3 -23 -137 -23 -119 0 -141 -2 -141 -15 0 -13 22 -15 141 -15 l140 0 -3 -32 -3 -33 -138 -3 c-77 -1 -137 -7 -137 -12 0 -5 60 -11 137 -12 130 -3 138 -4 138 -23 0 -19 -8 -20 -137 -23 -185 -4 -183 -22 3 -22 108 0 140 -3 137 -12 -3 -10 -43 -14 -141 -16 -77 -1 -137 -7 -137 -12 0 -5 60 -11 137 -12 130 -3 138 -4 138 -23 0 -19 -8 -20 -138 -23 -184 -4 -182 -22 4 -22 140 0 140 0 137 -22 -3 -22 -6 -23 -141 -26 -184 -4 -182 -22 3 -22 87 0 140 -4 140 -10 0 -6 -53 -10 -140 -10 -118 0 -140 -2 -140 -15 0 -13 22 -15 140 -15 l140 0 0 -25 0 -25 -140 0 c-185 0 -187 -18 -2 -22 l137 -3 3 -27 3 -28 -140 0 c-186 0 -188 -18 -4 -22 135 -3 138 -4 141 -25 3 -23 3 -23 -137 -23 -186 0 -188 -18 -3 -22 l137 -3 0 -25 0 -25 -137 -3 c-185 -4 -183 -22 2 -22 118 0 140 -2 140 -15 0 -13 -22 -15 -140 -15 -185 0 -187 -18 -3 -22 l138 -3 3 -32 3 -33 -140 0 c-119 0 -141 -2 -141 -15 0 -13 22 -15 141 -15 l140 0 -3 -27 -3 -28 -138 -3 c-77 -1 -137 -7 -137 -12 0 -5 60 -11 137 -12 122 -3 138 -5 141 -20 3 -16 -9 -18 -137 -18 -119 0 -141 -2 -141 -15 0 -13 22 -15 140 -15 133 0 140 -1 140 -20 0 -19 -7 -20 -140 -20 -118 0 -140 -2 -140 -15 0 -13 22 -15 140 -15 l140 0 0 -35 0 -35 -140 0 c-118 0 -140 -2 -140 -15 0 -13 22 -15 141 -15 140 0 140 0 137 -22 -3 -22 -6 -23 -141 -26 -184 -4 -182 -22 3 -22 l140 0 0 -25 0 -25 -140 0 c-185 0 -187 -18 -3 -22 135 -3 138 -4 141 -25 3 -23 3 -23 -137 -23 -186 0 -188 -18 -4 -22 135 -3 138 -4 141 -25 3 -23 3 -23 -137 -23 -119 0 -141 -2 -141 -15 0 -13 22 -15 141 -15 128 0 140 -2 137 -17 -3 -16 -19 -18 -141 -21 -184 -4 -182 -22 3 -22 133 0 140 -1 140 -20 0 -19 -7 -20 -140 -20 -118 0 -140 -2 -140 -15 0 -13 22 -15 141 -15 108 0 140 -3 137 -12 -3 -10 -43 -14 -141 -16 -184 -4 -181 -22 3 -22 133 0 140 -1 140 -20 0 -19 -7 -20 -140 -20 -185 0 -187 -18 -2 -22 134 -3 137 -4 140 -25 3 -23 3 -23 -137 -23 -119 0 -141 -2 -141 -15 0 -13 22 -15 141 -15 91 0 138 -4 134 -10 -4 -6 -62 -10 -141 -10 -180 0 -178 -19 4 -22 l137 -3 0 -25 0 -25 -137 -3 c-78 -1 -138 -7 -138 -12 0 -5 60 -11 138 -12 l137 -3 0 -25 0 -25 -137 -3 c-185 -4 -183 -22 3 -22 140 0 140 0 137 -22 -3 -22 -6 -23 -140 -26 -78 -1 -138 -7 -138 -12 0 -5 60 -11 138 -12 134 -3 137 -4 140 -25 3 -23 3 -23 -137 -23 -119 0 -141 -2 -141 -15 0 -13 22 -15 141 -15 108 0 140 -3 137 -12 -3 -10 -43 -14 -141 -16 -184 -4 -181 -22 4 -22 l140 0 -3 -32 -3 -33 -137 -3 c-78 -1 -138 -7 -138 -12 0 -5 60 -11 138 -12 l137 -3 0 -30 0 -30 -137 -3 c-185 -4 -183 -22 3 -22 128 0 140 -2 137 -17 -3 -16 -19 -18 -141 -21 -77 -1 -137 -7 -137 -12 0 -5 60 -11 138 -12 134 -3 137 -4 140 -26 3 -22 3 -22 -137 -22 -186 0 -188 -18 -3 -22 l137 -3 3 -38 3 -37 -140 0 c-186 0 -188 -18 -3 -22 134 -3 137 -4 140 -25 3 -23 3 -23 -137 -23 -186 0 -188 -18 -3 -22 l137 -3 0 -25 0 -25 -137 -3 c-185 -4 -183 -22 3 -22 140 0 140 0 137 -23 -3 -21 -6 -22 -140 -25 -182 -3 -184 -22 -3 -22 111 0 137 -3 141 -15 5 -13 371 -15 3209 -15 2838 0 3204 2 3209 15 4 12 30 15 141 15 181 0 179 19 -2 22 -135 3 -138 4 -141 26 -3 22 -3 22 137 22 186 0 188 18 4 22 l-138 3 0 25 0 25 138 3 c184 4 182 22 -4 22 -140 0 -140 0 -137 23 3 21 6 22 141 25 184 4 182 22 -4 22 l-140 0 3 38 3 37 138 3 c184 4 182 22 -4 22 -140 0 -140 0 -137 22 3 22 6 23 141 26 77 1 137 7 137 12 0 5 -60 11 -137 12 -122 3 -138 5 -141 21 -3 15 9 17 137 17 186 0 188 18 4 22 l-138 3 0 30 0 30 138 3 c77 1 137 7 137 12 0 5 -60 11 -137 12 l-138 3 -3 32 -3 33 140 0 c185 0 188 18 4 22 -98 2 -138 6 -141 16 -3 9 29 12 137 12 119 0 141 2 141 15 0 13 -22 15 -141 15 -140 0 -140 0 -137 23 3 21 6 22 141 25 77 1 137 7 137 12 0 5 -60 11 -137 12 -135 3 -138 4 -141 25 -3 23 -3 23 137 23 186 0 188 18 4 22 l-138 3 0 25 0 25 138 3 c77 1 137 7 137 12 0 5 -60 11 -137 12 l-138 3 0 25 0 25 138 3 c181 3 183 22 3 22 -79 0 -137 4 -141 10 -4 6 43 10 134 10 119 0 141 2 141 15 0 13 -22 15 -141 15 -140 0 -140 0 -137 22 3 22 6 23 141 26 184 4 182 22 -3 22 -133 0 -140 1 -140 20 0 19 7 20 140 20 184 0 187 18 3 22 -98 2 -138 6 -141 16 -3 9 29 12 137 12 119 0 141 2 141 15 0 13 -22 15 -140 15 -133 0 -140 1 -140 20 0 19 7 20 140 20 185 0 187 18 3 22 -122 3 -138 5 -141 21 -3 15 9 17 137 17 119 0 141 2 141 15 0 13 -22 15 -141 15 -140 0 -140 0 -137 22 3 22 6 23 141 26 184 4 182 22 -4 22 -140 0 -140 0 -137 23 3 21 6 22 141 25 184 4 182 22 -3 22 l-140 0 0 25 0 25 140 0 c185 0 187 18 3 22 -135 3 -138 4 -141 26 -3 22 -3 22 137 22 119 0 141 2 141 15 0 13 -22 15 -140 15 l-140 0 0 35 0 35 140 0 c118 0 140 2 140 15 0 13 -22 15 -140 15 -133 0 -140 1 -140 20 0 19 7 20 140 20 118 0 140 2 140 15 0 13 -22 15 -141 15 -128 0 -140 2 -137 18 3 15 19 17 141 20 77 1 137 7 137 12 0 5 -60 11 -137 12 l-138 3 -3 28 -3 27 140 0 c119 0 141 2 141 15 0 13 -22 15 -141 15 l-140 0 3 33 3 32 138 3 c184 4 182 22 -3 22 -118 0 -140 2 -140 15 0 13 22 15 140 15 185 0 187 18 3 22 l-138 3 0 25 0 25 138 3 c184 4 182 22 -4 22 -140 0 -140 0 -137 22 3 22 6 23 141 26 184 4 182 22 -4 22 l-140 0 3 28 3 27 138 3 c184 4 182 22 -3 22 l-140 0 0 25 0 25 140 0 c118 0 140 2 140 15 0 13 -22 15 -140 15 -87 0 -140 4 -140 10 0 6 53 10 140 10 185 0 187 18 3 22 -135 3 -138 4 -141 26 -3 22 -3 22 137 22 186 0 188 18 4 22 -130 3 -138 4 -138 23 0 19 8 20 138 23 77 1 137 7 137 12 0 5 -60 11 -137 12 -98 2 -138 6 -141 16 -3 9 29 12 137 12 186 0 188 18 4 22 -130 3 -138 4 -138 23 0 19 8 20 138 23 77 1 137 7 137 12 0 5 -60 11 -137 12 l-138 3 -3 33 -3 32 140 0 c119 0 141 2 141 15 0 13 -22 15 -141 15 -140 0 -140 0 -137 23 3 21 6 22 141 25 184 4 182 22 -4 22 l-140 0 3 28 3 27 138 3 c77 1 137 7 137 12 0 5 -59 11 -135 12 -82 2 -135 7 -135 13 0 6 53 11 135 13 76 1 135 7 135 12 0 5 -60 11 -137 12 -115 3 -138 6 -138 18 0 12 23 15 138 18 77 1 137 7 137 12 0 5 -60 11 -137 12 -135 3 -138 4 -141 26 -3 22 -3 22 137 22 186 0 188 18 4 22 l-138 3 0 25 0 25 138 3 c184 4 182 22 -4 22 -140 0 -140 0 -137 23 3 21 6 22 141 25 184 4 182 22 -4 22 l-140 0 3 38 3 37 138 3 c184 4 182 22 -4 22 -140 0 -140 0 -137 23 3 21 6 22 141 25 77 1 137 7 137 12 0 5 -60 11 -137 12 -122 3 -138 5 -141 21 -3 15 9 17 137 17 119 0 141 2 141 15 0 13 -22 15 -141 15 l-140 0 3 28 3 27 138 3 c77 1 137 7 137 12 0 5 -60 11 -137 12 l-138 3 -3 33 -3 32 140 0 c185 0 188 18 4 22 -98 2 -138 6 -141 16 -3 9 29 12 137 12 119 0 141 2 141 15 0 13 -22 15 -141 15 -140 0 -140 0 -137 23 3 21 6 22 141 25 77 1 137 7 137 12 0 5 -60 11 -137 12 -135 3 -138 4 -141 26 -3 22 -3 22 137 22 186 0 188 18 4 22 l-138 3 0 25 0 25 138 3 c77 1 137 7 137 12 0 5 -60 11 -137 12 l-138 3 0 25 0 25 138 3 c181 3 183 22 3 22 -79 0 -137 4 -141 10 -4 6 43 10 134 10 119 0 141 2 141 15 0 13 -22 15 -141 15 -140 0 -140 0 -137 23 3 21 6 22 141 25 184 4 182 22 -3 22 -133 0 -140 1 -140 20 0 19 7 20 140 20 184 0 187 18 3 22 -98 2 -138 6 -141 16 -3 9 29 12 137 12 119 0 141 2 141 15 0 13 -22 15 -140 15 -133 0 -140 1 -140 20 0 19 7 20 140 20 185 0 187 18 3 22 l-138 3 0 35 0 35 138 3 c77 1 137 7 137 12 0 5 -60 11 -137 12 -130 3 -138 4 -138 23 0 19 8 20 138 23 77 1 137 7 137 12 0 5 -60 11 -137 12 l-138 3 -3 28 -3 27 140 0 c185 0 188 18 4 22 -98 2 -138 6 -141 16 -3 9 29 12 137 12 87 0 141 4 141 10 0 6 -52 10 -135 10 -111 0 -137 3 -141 15 -5 13 -371 15 -3209 15 -2838 0 -3204 -2 -3209 -15z m6394 -2360 l0 -2355 -3185 0 -3185 0 0 2355 0 2355 3185 0 3185 0 0 -2355z"/>
<path d="M630 2365 l0 -2015 2870 0 2870 0 0 2015 0 2015 -2870 0 -2870 0 0 -2015z m5720 0 l0 -1995 -2850 0 -2850 0 0 1995 0 1995 2850 0 2850 0 0 -1995z"/>
<path d="M1400 2380 l0 -1440 2100 0 2100 0 -2 1438 -3 1437 -2097 3 -2098 2 0 -1440z m4170 -5 l0 -1415 -2075 0 -2075 0 0 1415 0 1415 2075 0 2075 0 0 -1415z"/>
<path d="M2450 2355 l0 -745 1080 0 1080 0 0 745 0 745 -1080 0 -1080 0 0 -745z m2138 3 l-3 -723 -1057 -3 -1058 -2 0 725 0 725 1060 0 1060 0 -2 -722z"/>
</g>
</svg>