<svg xmlns="http://www.w3.org/2000/svg" version="1.0" width="100pt" height="48.17pt" viewBox="0 0 704.000000 339.000000" preserveAspectRatio="xMidYMid meet" style="background: white">

<g transform="translate(0.000000,339.000000) scale(0.100000,-0.100000)" fill="#000000" stroke="none">
<path d="M327 3376 c-44 -16 -103 -59 -117 -86 -8 -14 -21 -20 -46 -20 -63 0 -119 -43 -149 -112 -13 -33 -15 -198 -15 -1457 l0 -1421 59 -112 c47 -92 65 -116 92 -130 114 -57 532 -44 601 19 10 9 18 24 18 34 0 9 3 24 6 33 6 15 257 16 2750 16 l2744 0 0 -26 c0 -61 44 -86 186 -105 97 -13 309 -7 384 11 72 17 88 34 146 152 l54 111 0 1419 c0 1258 -2 1423 -15 1456 -29 68 -86 112 -147 112 -26 0 -42 10 -75 44 -81 84 248 76 -3287 76 -2606 -1 -3157 -3 -3189 -14z m6360 -18 c60 -15 137 -87 152 -143 14 -53 15 -726 0 -778 -13 -47 -60 -102 -113 -130 l-41 -22 -3135 -3 c-2333 -2 -3149 0 -3189 8 -63 14 -125 64 -152 125 -17 36 -19 74 -19 411 l0 370 25 50 c28 56 69 91 129 110 57 18 6273 20 6343 2z m-6515 -155 c-4 -27 -7 -208 -7 -403 l0 -355 30 -54 c62 -112 114 -131 366 -131 l189 0 0 -994 0 -993 -23 -34 c-12 -19 -42 -44 -67 -56 -42 -22 -56 -23 -265 -23 -121 0 -236 4 -254 10 -46 13 -99 65 -111 110 -6 22 -10 546 -10 1435 0 1344 1 1402 19 1441 23 51 76 91 123 93 15 1 17 -5 10 -46z m6779 16 c17 -12 40 -40 50 -63 18 -39 19 -97 19 -1441 0 -889 -4 -1413 -10 -1435 -12 -45 -65 -97 -111 -110 -18 -6 -133 -10 -254 -10 -209 0 -223 1 -265 23 -25 12 -55 37 -67 56 l-23 34 0 993 0 994 181 0 c99 0 200 5 224 11 56 14 131 79 156 134 17 36 19 73 19 417 0 234 -4 387 -10 404 -10 26 -10 27 25 21 19 -3 49 -16 66 -28z m-4511 -1905 c0 -629 -3 -952 -10 -965 -27 -50 -11 -49 -860 -49 l-790 0 0 980 0 980 830 0 830 0 0 -946z m2170 9 c0 -920 0 -939 -20 -971 -11 -18 -32 -37 -46 -42 -16 -6 -396 -10 -1016 -10 l-990 0 -34 34 -34 34 0 946 0 946 1070 0 1070 0 0 -937z m1650 -43 l0 -980 -770 0 c-827 0 -813 -1 -840 49 -7 13 -10 336 -10 965 l0 946 810 0 810 0 0 -980z m-3743 -989 c15 -8 319 -11 1027 -11 l1006 0 39 35 c30 28 40 32 45 20 3 -8 20 -24 38 -35 32 -19 50 -20 811 -20 l777 0 0 -60 0 -60 -2740 0 -2740 0 0 60 0 60 811 2 811 3 26 31 27 31 20 -23 c11 -12 30 -27 42 -33z m-1761 -87 c-3 -9 -6 -40 -6 -70 l0 -55 -43 -19 c-69 -30 -254 -45 -391 -31 -155 15 -171 22 -202 84 -22 43 -23 49 -7 41 10 -5 128 -10 263 -12 266 -3 302 2 350 53 27 28 45 33 36 9z m5626 -48 c30 -13 82 -16 272 -16 137 0 246 4 262 10 15 6 29 9 31 6 3 -2 -7 -25 -22 -49 -32 -56 -52 -63 -201 -78 -178 -18 -398 10 -426 54 -4 7 -8 41 -8 76 l0 65 28 -27 c15 -14 44 -33 64 -41z"/>
</g>
</svg>