<svg version="1.0" xmlns="http://www.w3.org/2000/svg"
 width="42.8456376pt" height="80pt" viewBox="0 0 399.000000 745.000000"
 preserveAspectRatio="xMidYMid meet">
<metadata>
Created by potrace 1.16, written by Peter Selinger 2001-2019
</metadata>
<g transform="translate(0.000000,745.000000) scale(0.100000,-0.100000)"
fill="#000000" stroke="none">
<path d="M0 3725 l0 -3725 1995 0 1995 0 0 3725 0 3725 -1995 0 -1995 0 0
-3725z m3968 3183 l2 -518 -1975 0 -1975 0 0 513 c0 283 3 517 7 520 3 4 891
6 1972 5 l1966 -3 3 -517z m2 -1063 l0 -515 -1975 0 -1975 0 0 515 0 515 1975
0 1975 0 0 -515z m0 -1060 l0 -515 -1975 0 -1975 0 0 515 0 515 1975 0 1975 0
0 -515z m0 -1060 l0 -515 -1975 0 -1975 0 0 515 0 515 1975 0 1975 0 0 -515z
m-2 -1062 l-3 -518 -1970 0 -1970 0 -3 518 -2 517 1975 0 1975 0 -2 -517z m0
-1060 l-3 -518 -1970 0 -1970 0 -3 518 -2 517 1975 0 1975 0 -2 -517z m0
-1060 l-3 -518 -1970 0 -1970 0 -3 518 -2 517 1975 0 1975 0 -2 -517z"/>
</g>
</svg>