<svg version="1.0" xmlns="http://www.w3.org/2000/svg"
 width="80pt" height="23.759pt" viewBox="0 0 532.000000 158.000000"
 preserveAspectRatio="xMidYMid meet">

<g transform="translate(0.000000,158.000000) scale(0.100000,-0.100000)"
fill="#000000" stroke="none">
<path d="M1 883 l0 -698 33 -90 33 -90 2593 0 2593 0 33 90 33 90 0 698 1 697
-2660 0 -2660 0 1 -697z m5297 0 l2 -673 -2640 0 -2640 0 0 668 c0 368 3 672
7 675 3 4 1190 6 2637 5 l2631 -3 3 -672z m-4280 -741 l3 -32 -478 2 -478 3
-3 33 -3 32 478 -2 478 -3 3 -33z m57 16 c17 -74 25 -114 25 -125 0 -22 -29
-14 -35 10 -17 73 -25 113 -25 125 0 21 29 13 35 -10z m3125 -28 l0 -50 -1540
0 -1540 0 0 50 0 50 1540 0 1540 0 0 -50z m80 33 c-1 -10 -6 -45 -13 -78 -10
-44 -18 -61 -31 -63 -15 -3 -18 1 -13 20 3 12 11 49 17 81 7 37 16 57 26 57 8
0 14 -8 14 -17z m988 -15 l-3 -33 -482 -3 c-471 -2 -483 -2 -483 17 0 54 -27
51 492 51 l479 0 -3 -32z m-4234 -74 c3 -9 6 -24 6 -35 0 -19 -12 -19 -477
-17 l-477 3 -13 33 -13 32 484 0 c432 0 485 -2 490 -16z m4213 -16 l-13 -33
-477 -3 c-465 -2 -477 -2 -477 17 0 54 -27 51 496 51 l484 0 -13 -32z m-1049
-15 c-3 -17 -84 -18 -1538 -18 -1454 0 -1535 1 -1538 18 -3 16 75 17 1538 17
1463 0 1541 -1 1538 -17z"/>
</g>
</svg>