<svg version="1.0" xmlns="http://www.w3.org/2000/svg"
 width="43.0017452pt" height="80pt" viewBox="0 0 308.000000 573.000000"
 preserveAspectRatio="xMidYMid meet" style="background: white">

<g transform="translate(0.000000,573.000000) scale(0.100000,-0.100000)"
fill="#000000" stroke="none">
<path d="M3 5658 c2 -42 21 -138 45 -226 l42 -153 0 -2437 0 -2437 -42 -130
c-27 -86 -43 -155 -45 -202 l-5 -73 1542 0 1542 0 -5 73 c-2 47 -18 116 -45
202 l-42 130 0 2437 0 2437 42 153 c24 88 43 184 45 226 l5 72 -1542 0 -1542
0 5 -72z m3047 7 l0 -45 -1510 0 -1510 0 0 45 0 45 1510 0 1510 0 0 -45z m-25
-162 c-13 -49 -29 -107 -35 -131 l-11 -43 -30 26 -31 25 -1378 0 -1378 0 -31
-25 -30 -26 -11 43 c-6 24 -22 82 -35 131 l-24 87 1509 0 1509 0 -24 -87z
m-83 -171 l23 -23 3 -1146 2 -1146 -82 6 c-311 22 -954 226 -1307 414 -305
162 -742 281 -1276 348 -72 8 -145 18 -163 21 l-32 5 0 737 c0 788 -1 773 50
799 20 10 308 12 1392 10 l1367 -2 23 -23z m-2550 -1582 c207 -30 455 -77 557
-106 152 -43 367 -193 667 -466 119 -107 554 -541 703 -701 35 -37 64 -67 65
-65 2 2 24 41 51 87 151 261 350 454 503 486 l32 7 0 -1322 c0 -1407 1 -1366
-45 -1384 -22 -8 -2748 -8 -2770 0 -47 18 -45 -52 -45 1779 l0 1715 38 0 c20
0 130 -14 244 -30z m874 -201 c66 -22 198 -80 294 -129 370 -186 862 -350
1219 -407 112 -17 113 -18 80 -31 -134 -54 -314 -250 -474 -516 -8 -14 -43 18
-210 196 -379 401 -760 743 -1022 915 -30 20 -11 15 113 -28z m274 -3294
l1392 0 29 33 c19 21 31 28 34 20 15 -42 45 -145 45 -155 0 -10 -307 -13
-1500 -13 -1193 0 -1500 3 -1500 13 0 10 30 113 45 155 3 8 15 1 34 -20 l29
-33 1392 0z m1510 -190 l0 -45 -1510 0 -1510 0 0 45 0 45 1510 0 1510 0 0 -45z"/>
<path d="M789 5026 c-55 -19 -95 -52 -115 -93 -17 -35 -19 -70 -22 -423 -2
-256 0 -397 8 -422 14 -48 53 -94 101 -118 37 -19 63 -20 779 -20 716 0 742 1
779 20 48 24 87 70 101 118 8 25 10 166 8 422 -3 368 -4 387 -24 425 -13 25
-39 51 -69 70 l-48 30 -731 2 c-581 2 -738 0 -767 -11z m1520 -31 c41 -20 79
-69 91 -116 7 -27 10 -168 8 -413 l-3 -373 -28 -42 c-18 -27 -44 -50 -70 -62
-40 -18 -76 -19 -767 -19 -691 0 -727 1 -767 19 -26 12 -52 35 -70 62 l-28 42
-3 373 c-2 241 1 387 7 412 13 47 43 88 85 113 30 18 64 19 774 19 633 0 747
-2 771 -15z"/>
</g>
</svg>
