<svg version="1.0" xmlns="http://www.w3.org/2000/svg"
width="70.176pt" height="80pt" viewBox="0 0 296.000000 310.000000"
 preserveAspectRatio="xMidYMid meet">

<g transform="translate(0.000000,310.000000) scale(0.100000,-0.100000)"
fill="#000000" stroke="none">
<path d="M1260 3093 c-385 -19 -707 -76 -906 -158 -163 -68 -282 -162 -303
-242 -31 -116 -51 -712 -50 -1513 l0 -545 24 -50 c21 -43 25 -64 25 -148 0
-106 0 -105 79 -246 60 -108 88 -141 140 -165 l46 -21 1170 0 c1281 0 1232 -2
1290 59 17 19 52 85 83 159 50 121 52 131 52 218 0 78 3 96 25 135 l25 45 0
342 c0 714 -25 1616 -47 1737 -15 84 -180 197 -386 265 -291 95 -839 151
-1267 128z m595 -34 c484 -38 831 -138 980 -284 61 -59 60 -55 75 -323 9 -164
29 -1290 30 -1670 l0 -152 -27 -11 c-30 -11 -216 -14 -258 -3 l-26 6 6 397
c15 917 24 1227 44 1429 15 147 17 210 10 230 -44 117 -258 191 -679 234 -170
17 -922 17 -1090 0 -393 -40 -593 -108 -640 -216 -18 -40 -18 -48 1 -261 14
-158 23 -418 34 -925 19 -961 21 -876 -11 -884 -42 -11 -228 -8 -259 4 l-28
11 6 727 c9 940 25 1280 62 1352 35 69 199 171 356 223 336 112 890 157 1414
116z m175 -173 c339 -34 543 -92 614 -176 32 -39 33 -61 6 -344 -13 -140 -24
-212 -32 -218 -7 -4 -38 -17 -68 -29 -235 -89 -550 -137 -950 -146 l-245 -5
-34 76 c-42 93 -81 138 -141 161 -68 26 -199 31 -298 10 -93 -19 -307 -87
-364 -116 l-37 -19 -66 26 c-37 15 -72 36 -79 48 -16 25 -53 478 -42 520 14
57 97 109 238 150 134 39 332 64 628 80 141 8 733 -5 870 -18z m-905 -690 c45
-11 48 -13 30 -23 -26 -15 -140 -44 -325 -83 -206 -44 -334 -77 -403 -105 -59
-24 -59 -24 -41 -3 35 39 133 96 222 128 251 91 396 115 517 86z m110 -50 c70
-70 185 -404 185 -536 0 -47 -44 -87 -154 -140 -235 -113 -619 -206 -706 -170
-87 36 -203 300 -217 497 -5 67 -3 87 11 107 35 55 143 91 495 167 130 28 261
61 291 74 70 29 67 29 95 1z m-820 -109 c-19 -15 -46 -42 -59 -60 l-26 -32 0
87 0 86 60 -26 59 -26 -34 -29z m2211 -169 c-3 -139 -8 -478 -11 -753 -5 -466
-4 -502 12 -535 l18 -35 124 -3 124 -3 -5 -103 c-4 -90 -8 -110 -32 -150 -15
-26 -46 -60 -69 -77 -86 -62 -27 -60 -1328 -57 l-1184 3 -50 23 c-111 51 -155
127 -155 270 l0 92 118 0 c64 0 123 4 129 8 32 20 38 92 32 382 -3 157 -7 382
-7 500 l-1 215 25 -75 c58 -171 144 -292 214 -302 111 -16 494 82 699 179 41
19 94 53 117 75 41 38 44 44 44 94 0 60 -19 158 -49 254 -12 36 -21 68 -21 73
0 4 87 7 193 7 375 0 786 60 986 144 91 39 85 58 77 -226z m-2311 -1281 c-9
-22 -37 -27 -147 -27 -75 0 -100 4 -112 16 -9 8 -16 18 -16 20 0 3 39 2 88 -1
48 -3 110 -2 137 3 58 10 57 10 50 -11z m2592 -12 c-6 -16 -232 -18 -245 -3
-8 10 15 13 119 13 81 0 128 -4 126 -10z m-119 -447 c-31 -58 -37 -64 -88 -83
-54 -20 -80 -20 -1215 -20 l-1160 0 -47 22 c-34 16 -56 35 -78 69 -16 26 -30
51 -30 55 0 3 19 -3 43 -15 l42 -21 1225 0 1225 0 55 31 c30 16 57 29 58 28 2
-1 -11 -31 -30 -66z"/>
<path d="M2429 2666 c-8 -9 -280 -46 -438 -61 -429 -39 -1077 -23 -1450 36
-40 6 -68 6 -74 0 -10 -10 10 -15 128 -31 317 -42 881 -61 1210 -41 323 20
645 64 645 87 0 13 -12 19 -21 10z"/>
</g>
</svg>